<svg width="12" height="7" viewBox="0 0 12 7" fill="none" xmlns="http://www.w3.org/2000/svg">
<path d="M5.18106 6.7984C5.23286 6.86057 5.30217 6.91141 5.38302 6.94653C5.46388 6.98165 5.55385 7 5.64519 7C5.73653 7 5.82651 6.98165 5.90736 6.94653C5.98821 6.91141 6.05753 6.86057 6.10932 6.7984L11.1911 0.73215C11.2499 0.662181 11.2844 0.580228 11.2908 0.495195C11.2972 0.410163 11.2753 0.325302 11.2275 0.249833C11.1797 0.174365 11.1077 0.111175 11.0195 0.0671292C10.9312 0.0230835 10.83 -0.000133618 10.727 5.78465e-07H0.563432C0.46058 0.000351679 0.359788 0.0238674 0.271898 0.0680186C0.184007 0.11217 0.112343 0.175286 0.0646119 0.25058C0.0168806 0.325874 -0.00511178 0.410497 0.000999863 0.495348C0.0071115 0.580199 0.0410959 0.662067 0.0992984 0.73215L5.18106 6.7984Z" fill="white"/>
</svg>
