<svg width="19" height="16" viewBox="0 0 19 16" fill="none" xmlns="http://www.w3.org/2000/svg">
<g clip-path="url(#clip0_2187_2597)">
<path d="M18.2888 0.0982143C18.5106 0.241071 18.6014 0.431548 18.561 0.669643L15.98 14.3839C15.9464 14.5565 15.8389 14.6905 15.6574 14.7857C15.5633 14.8333 15.4591 14.8571 15.3448 14.8571C15.2709 14.8571 15.1903 14.8423 15.1029 14.8125L10.5357 13.1607L8.09584 15.7946C7.97486 15.9315 7.81019 16 7.60182 16C7.51444 16 7.44051 15.9881 7.38002 15.9643C7.25231 15.9226 7.14981 15.8527 7.07251 15.7545C6.99522 15.6563 6.95657 15.5476 6.95657 15.4286V12.3125L15.6675 2.85714L4.88975 11.1161L0.907332 9.66964C0.658642 9.58631 0.524214 9.42262 0.50405 9.17857C0.490607 8.94048 0.598149 8.76488 0.826676 8.65179L17.6032 0.0803571C17.7041 0.0267857 17.8116 0 17.9259 0C18.0603 0 18.1813 0.0327381 18.2888 0.0982143Z" fill="white"/>
</g>
<defs>
<clipPath id="clip0_2187_2597">
<rect width="18.0671" height="16" fill="white" transform="translate(0.503906)"/>
</clipPath>
</defs>
</svg>
