<svg width="24" height="24" viewBox="0 0 24 24" fill="none" xmlns="http://www.w3.org/2000/svg">
<g clip-path="url(#clip0_2187_2644)">
<path d="M11 9.00025V15.0002C11.0003 15.2551 11.0979 15.5003 11.2728 15.6856C11.4478 15.871 11.687 15.9825 11.9414 15.9974C12.1958 16.0124 12.4464 15.9296 12.6418 15.766C12.8373 15.6024 12.9629 15.3703 12.993 15.1172L13 15.0002V9.00025H19C19.5046 9.00009 19.9906 9.19066 20.3605 9.53375C20.7305 9.87684 20.9572 10.3471 20.995 10.8502L21 11.0002V20.0002C21.0002 20.5048 20.8096 20.9908 20.4665 21.3608C20.1234 21.7308 19.6532 21.9574 19.15 21.9953L19 22.0002H5C4.49542 22.0004 4.00943 21.8098 3.63945 21.4668C3.26947 21.1237 3.04284 20.6534 3.005 20.1502L3 20.0002V11.0002C2.99984 10.4957 3.19041 10.0097 3.5335 9.6397C3.87659 9.26972 4.34684 9.04309 4.85 9.00525L5 9.00025H11ZM12.884 2.46925L16.243 5.82725C16.4306 6.01489 16.5361 6.26938 16.5361 6.53475C16.5361 6.80011 16.4306 7.05461 16.243 7.24225C16.0554 7.42989 15.8009 7.53531 15.5355 7.53531C15.2701 7.53531 15.0156 7.42989 14.828 7.24225L13 5.41325V9.00025H11V5.41325L9.172 7.24225C9.07909 7.33516 8.96879 7.40886 8.8474 7.45914C8.726 7.50942 8.5959 7.53531 8.4645 7.53531C8.33311 7.53531 8.203 7.50942 8.0816 7.45914C7.96021 7.40886 7.84991 7.33516 7.757 7.24225C7.66409 7.14934 7.59039 7.03904 7.54011 6.91764C7.48982 6.79625 7.46394 6.66614 7.46394 6.53475C7.46394 6.40335 7.48982 6.27325 7.54011 6.15185C7.59039 6.03046 7.66409 5.92016 7.757 5.82725L11.117 2.46925C11.3514 2.23506 11.6692 2.10352 12.0005 2.10352C12.3318 2.10352 12.6496 2.23506 12.884 2.46925Z" fill="white"/>
</g>
<defs>
<clipPath id="clip0_2187_2644">
<rect width="24" height="24" fill="white"/>
</clipPath>
</defs>
</svg>
