<svg width="19" height="16" fill="none" xmlns="http://www.w3.org/2000/svg"><g clip-path="url(#clip0_2187_2597)"><path d="M18.289.098c.222.143.312.334.272.572L15.98 14.384c-.034.172-.141.306-.323.402a.683.683 0 01-.312.071.754.754 0 01-.242-.044l-4.567-1.652-2.44 2.634a.626.626 0 01-.494.205.608.608 0 01-.222-.036.63.63 0 01-.307-.21.515.515 0 01-.116-.325v-3.117l8.71-9.455-10.777 8.26L.907 9.67C.66 9.586.524 9.423.504 9.179c-.013-.239.094-.414.323-.527L17.603.08a.687.687 0 01.323-.08.69.69 0 01.363.098z" fill="#fff"/></g><defs><clipPath id="clip0_2187_2597"><path fill="#fff" transform="translate(.504)" d="M0 0h18.067v16H0z"/></clipPath></defs></svg>