<svg width="24" height="24" fill="none" xmlns="http://www.w3.org/2000/svg"><g clip-path="url(#clip0_2187_2644)"><path d="M11 9v6a1 1 0 001.993.117L13 15V9h6a2 2 0 011.995 1.85L21 11v9a2 2 0 01-1.85 1.995L19 22H5a2 2 0 01-1.995-1.85L3 20v-9a2 2 0 011.85-1.995L5 9h6zm1.884-6.53l3.359 3.357a1 1 0 01-1.415 1.415L13 5.413V9h-2V5.413l-1.828 1.83a1 1 0 11-1.415-1.416l3.36-3.358a1.25 1.25 0 011.767 0z" fill="#fff"/></g><defs><clipPath id="clip0_2187_2644"><path fill="#fff" d="M0 0h24v24H0z"/></clipPath></defs></svg>